# xmcd
#
# Track frame offsets:
#	150
#	16368
#	30565
#	48655
#	74815
#	89929
#	106623
#	133110
#	148581
#	162323
#	175195
#	190154
#	201217
#	217184
#	236583
#
# Disc length: 3392 seconds
#
# Revision: 0
# Processed by: cddbd v1.5.2PL0 Copyright (c) Steve Scherf et al.
# Submitted via: EasyCDDAExtractor 10.0.3.1
#
DISCID=e50d3e0f
DTITLE=Leif Ernstsen - Levitations
DYEAR=2009
DGENRE=Blues
TTITLE0=Afsked
TTITLE1=Cajuna
TTITLE2=Nu Er Det Læange Siden
TTITLE3=Rugen Drær
TTITLE4=Tivoli
TTITLE5=Tækkeren
TTITLE6=Medley
TTITLE7=Djævelens Ni Spørgamål
TTITLE8=McGhee's Spørgsmål
TTITLE9=Øjeblikket
TTITLE10=Koroni
TTITLE11=Marius' Springer
TTITLE12=Løvspring
TTITLE13=Poros
TTITLE14=Afterglow
EXTD=
EXTT0=
EXTT1=
EXTT2=
EXTT3=
EXTT4=
EXTT5=
EXTT6=
EXTT7=
EXTT8=
EXTT9=
EXTT10=
EXTT11=
EXTT12=
EXTT13=
EXTT14=
PLAYORDER=
